<svg height="180" viewBox="0 0 180 180" width="180" xmlns="http://www.w3.org/2000/svg"><path d="m94.807 34.739c-6.356.738-9.735-.96-11.769 5.092 0 0 6.829 10.296 25.027 10.038-1.018 4.207-.545 7.307-.545 11.034 0 12.4-9.807 23.213-31.42 23.213-10.97 0-24.3 1.993-34.47 7.566-7.229 3.948-12.884 9.669-15.387 17.603l2.837 4.023 5.43.073v22.77l-6.625 10.445 1.904 30.261h6.283l.545-24.357c3.124-1.845 10.279-6.642 16.381-14.023 8.283-9.927 14.639-24.357 7.157-42.219l5.593-2.399c6.139 14.651 3.996 27.347-1.38 37.569 10.279-.333 19.106-.996 26.588-2.251l-1.707-20.777 6.03-.517 5.739 68.974h6.248l1.053-44.913c4.977-2.14 16.309-10 21.612-37.31.654-3.321 1.018-6.126 1.199-8.525.835-6.089 1.308-12.953 1.453-20.777l-8.899-2.842h27.351l2.652-6.089c-2.579.111-5.667-1.254-5.667-1.254l.618-2.953h5.739l-31.057-16.349c-3.45 1.329-7.082 3.064-9.626 5.167-2.034-1.476-9.08-6.089-18.887-6.273z"/><path d="m118.925 133.569c3.269-3.543 7.047-8.526 10.571-15.205.108 2.767.29 4.428.435 5.277l16.091 13.802-12.132 23.914-5.448-2.583 7.591-17.529zm-58.408 4.059c4.375-.069 8.747-.242 13.113-.517-5.267 7.861-11.66 13.507-14.311 15.721v23.988h-6.212l-3.161-27.678c3.778-3.174 7.411-7.27 10.571-11.514zm-18.452-133.132 5.849-1.661c2.833 10.26 6.356 15.868 10.788 18.71 3.996 2.425 9.407 2.491 15.146 2.178-1.671-.554-3.233-1.329-4.686-2.399-3.232-2.399-5.993-6.385-8.064-13.618l5.812-1.735c1.563 5.463 3.379 8.599 5.812 10.408 2.434 1.771 5.376 2.214 8.863 2.583 6.538.738 14.711 1.033 24.918 5.83 1.38.517 2.797 1.181 4.177 1.92-.185-.392-.391-.775-.617-1.145-1.744-2.767-5.158-5.683-11.478-8.044l2.034-5.757c10.279 3.764 14.347 9.115 15.981 13.359 1.89 4.834.727 8.617.727 8.617-1.453.48-2.906 1.144-4.576 1.66-3.161-2.177-6.139-3.819-8.972-5.111-10.461-3.948-20.705-1.254-29.785-.405-6.83.627-13.077.332-18.489-3.137-5.34-3.396-10.025-9.891-13.44-22.253z"/><path d="m82.021 14.386c-1.199-2.731-1.925-6.089-1.598-10.223l6.03.443c-.364 5.019 1.38 8.414 3.341 10.628-2.542-.442-4.976-.494-7.773-.848zm38.139-.628 3.959-4.613c10.28 9.079 3.887 22.068 3.887 22.068l-5.63-.626c-.181-2.967-.545-8.482-3.16-11.588 1.707.874 3.16 1.838 4.759 3.284 0-2.694-.836-5.868-3.815-8.525z"/></svg>