<svg xmlns="http://www.w3.org/2000/svg" width="250" height="250" viewBox="0 0 0 0 250 0 250"><path fill="#FFF" d="M0 0H250V250H0z"/><path d="M119.846 85.433c-12.133 1.559-18.581-2.029-22.463 10.763 0 0 13.034 21.762 47.771 21.216-1.941 8.892-1.04 15.444-1.04 23.322 0 26.209-18.721 49.063-59.974 49.063-20.94 0-46.385 4.212-65.799 15.99-13.798 8.346-24.593 20.437-29.37 37.207l5.415 8.503 10.365.155v48.127l-12.647 22.075 3.635 63.96H7.734l1.04-51.481c5.963-3.9 19.621-14.04 31.269-29.64 15.808-20.983 27.942-51.481 13.659-89.233l10.678-5.07c11.717 30.967 7.627 57.799-2.635 79.404 19.621-.701 36.47-2.105 50.753-4.757l-3.259-43.915 11.51-1.092 10.954 145.784h11.925l2.011-94.927c9.499-4.524 31.132-21.138 41.254-78.859 1.248-7.021 1.942-12.949 2.288-18.019 1.595-12.869 2.496-27.378 2.774-43.915l-16.987-6.005h52.208l5.062-12.871c-4.923.235-10.816-2.652-10.816-2.652l1.179-6.239h10.954l-59.281-34.555c-6.586 2.808-13.52 6.474-18.374 10.92-3.882-3.12-17.333-12.871-36.054-13.26z"/><path d="M19.173 21.51L30.335 18c5.409 21.684 12.134 33.54 20.593 39.547 7.627 5.124 17.957 5.265 28.913 4.602-3.19-1.17-6.171-2.808-8.944-5.07-6.171-5.07-11.44-13.495-15.393-28.782l11.094-3.667c2.981 11.545 6.448 18.174 11.093 21.996 4.646 3.745 10.262 4.68 16.918 5.46 12.48 1.561 28.08 2.185 47.564 12.325 2.635 1.091 5.339 2.495 7.973 4.056-.347-.78-.693-1.561-1.179-2.418-3.328-5.851-9.845-12.012-21.91-17.004l3.883-12.169c19.622 7.956 27.387 19.266 30.507 28.236 3.606 10.219 1.387 18.214 1.387 18.214-2.773 1.014-5.546 2.418-8.736 3.509-6.032-4.601-11.717-8.072-17.125-10.803-19.969-8.345-39.521-2.651-56.855-.857-13.035 1.327-24.96.701-35.291-6.631C34.634 61.369 25.69 47.641 19.173 21.51z"/><path d="M95.44 42.414c-2.287-5.772-3.674-12.87-3.05-21.606l11.51.936c-.694 10.608 2.634 17.784 6.378 22.464-4.853-.935-9.498-1.045-14.838-1.794zm72.802-1.326l7.558-9.75c19.621 19.188 7.418 46.645 7.418 46.645l-10.746-1.327c-.347-6.271-1.04-17.924-6.033-24.492 3.259 1.85 6.033 3.885 9.083 6.943 0-5.694-1.594-12.402-7.28-18.019z"/></svg>